<svg id="logo-white-red" xmlns="http://www.w3.org/2000/svg" xmlns:xlink="http://www.w3.org/1999/xlink" width="126.804" height="56.329" viewBox="0 0 126.804 56.329">
  <defs>
    <linearGradient id="linear-gradient" x1="-0.002" y1="0.501" x2="0.998" y2="0.501" gradientUnits="objectBoundingBox">
      <stop offset="0" stop-color="#eb2326"/>
      <stop offset="1" stop-color="#bc000a"/>
    </linearGradient>
    <linearGradient id="linear-gradient-2" x1="0" y1="0.5" x2="0.999" y2="0.5" xlink:href="#linear-gradient"/>
  </defs>
  <g id="logo">
    <g id="Group_268" data-name="Group 268" transform="translate(24.014 18.161)">
      <path id="Path_940" data-name="Path 940" d="M65.569,45.5l-.289,1.353,1.033-.9.5-.41h-1.24Zm14.879,0-2.232,9.962h-7.77L72.678,45.5H69.041l-3.265,2.87-1.116.984L63.3,55.462l-1.529,6.723h.041l-.165.656H61.6l-1.9,8.486h7.15l1.033-4.715h.041l.992-4.428h7.729l-2.067,9.142H81.4l2.976-13.242.579-2.624L87.185,45.5H80.448Z" transform="translate(-59.7 -45.5)" fill="#eb2326"/>
      <path id="Path_941" data-name="Path 941" d="M133.975,45.623l.041-.123-.041.041v.082L115.5,71.369h7.853l7.274-10.126,1.984,10.126h8.1Z" transform="translate(-92.437 -45.5)" fill="#eb2326"/>
      <path id="Path_942" data-name="Path 942" d="M203.305,45.5,200.04,60.095l-6.2-14.595h-6.654L181.4,71.328h6.654l3.058-13.57,6.406,13.57h6.53l.248-1.107L209.836,45.5h-6.53Z" transform="translate(-131.1 -45.5)" fill="#eb2326"/>
      <path id="Path_943" data-name="Path 943" d="M270.441,45.5H249.528l-1.488,6.559h12.317L245.188,64.768,243.7,71.328h20.913l1.488-6.559H254.4l14.507-12.709Z" transform="translate(-167.651 -45.5)" fill="#eb2326"/>
    </g>
    <g id="Group_269" data-name="Group 269" transform="translate(22.526 46.039)">
      <path id="Path_944" data-name="Path 944" d="M56.885,114.848h.289l-.785,2.911H56.1Zm.289-1.148h.331l-.124.369h-.331Z" transform="translate(-56.1 -113.618)" fill="#fff"/>
      <path id="Path_945" data-name="Path 945" d="M60.227,116.382h.289l-.124.533a1.089,1.089,0,0,0,.207-.246c.083-.082.165-.123.248-.2a2.026,2.026,0,0,1,.289-.123.917.917,0,0,1,.331-.041.977.977,0,0,1,.7.246.927.927,0,0,1,.248.656v.2c0,.082-.041.123-.041.2l-.455,1.64h-.289l.455-1.681c0-.041.041-.123.041-.164v-.164a.859.859,0,0,0-.207-.533.637.637,0,0,0-.537-.2,1.215,1.215,0,0,0-.372.082,1.679,1.679,0,0,0-.372.2,1.108,1.108,0,0,0-.289.328,1.51,1.51,0,0,0-.207.451l-.455,1.64H59.4Z" transform="translate(-58.036 -115.152)" fill="#fff"/>
      <path id="Path_946" data-name="Path 946" d="M69.007,117.972a.527.527,0,0,1-.207-.451v-.164c0-.082,0-.082.041-.123l.5-1.845h-.413l.083-.246h.413l.248-.943h.289l-.248.943H70.7l-.083.246h-.992l-.5,1.845v.246a.247.247,0,0,0,.124.246.784.784,0,0,0,.331.082,1.832,1.832,0,0,0,.413-.082l-.083.287a.453.453,0,0,1-.207.041H69.5A.645.645,0,0,1,69.007,117.972Z" transform="translate(-63.551 -113.913)" fill="#fff"/>
      <path id="Path_947" data-name="Path 947" d="M74.307,118.081v.082a1.2,1.2,0,0,0,.083.41,1.077,1.077,0,0,0,.5.492,1.231,1.231,0,0,0,.413.082,1.329,1.329,0,0,0,.579-.123,2.783,2.783,0,0,0,.455-.287l.165.2a3.451,3.451,0,0,1-.5.328,1.585,1.585,0,0,1-.661.123,1.553,1.553,0,0,1-.5-.082.859.859,0,0,1-.413-.246.967.967,0,0,1-.248-.369,1.032,1.032,0,0,1-.083-.492,1.688,1.688,0,0,1,.124-.656,1.986,1.986,0,0,1,.909-.984,1.221,1.221,0,0,1,.661-.164,2.091,2.091,0,0,1,.5.082.642.642,0,0,1,.331.246.791.791,0,0,1,.207.369,1.446,1.446,0,0,1,.083.41,1.518,1.518,0,0,1-.083.492h-2.4C74.307,118.04,74.307,118.04,74.307,118.081Zm2.191-.328v-.2a.793.793,0,0,0-.041-.328.659.659,0,0,0-.165-.287c-.083-.082-.165-.123-.248-.2a.831.831,0,0,0-.372-.082,1.5,1.5,0,0,0-.455.082.744.744,0,0,0-.372.246.894.894,0,0,0-.289.369,1.705,1.705,0,0,0-.165.41Z" transform="translate(-66.66 -115.211)" fill="#fff"/>
      <path id="Path_948" data-name="Path 948" d="M82.327,116.441h.289l-.207.82a2.658,2.658,0,0,1,.331-.369,2.268,2.268,0,0,1,.372-.287,1.243,1.243,0,0,1,.413-.164,1.562,1.562,0,0,1,.455-.041l-.083.328h-.124a2.09,2.09,0,0,0-.5.082,1.551,1.551,0,0,0-.5.287,2.156,2.156,0,0,0-.413.451,1.382,1.382,0,0,0-.248.615l-.331,1.189H81.5Z" transform="translate(-71.002 -115.211)" fill="#fff"/>
      <path id="Path_949" data-name="Path 949" d="M87.827,116.382h.289l-.124.533a1.089,1.089,0,0,0,.207-.246c.083-.082.165-.123.248-.2a2.027,2.027,0,0,1,.289-.123.917.917,0,0,1,.331-.041.977.977,0,0,1,.7.246.927.927,0,0,1,.248.656v.2c0,.082-.041.123-.041.2l-.455,1.64h-.289l.455-1.681c0-.041.041-.123.041-.164v-.164a.86.86,0,0,0-.207-.533.637.637,0,0,0-.537-.2,1.215,1.215,0,0,0-.372.082,1.679,1.679,0,0,0-.372.2,1.108,1.108,0,0,0-.289.328,1.509,1.509,0,0,0-.207.451l-.455,1.64H87Z" transform="translate(-74.229 -115.152)" fill="#fff"/>
      <path id="Path_950" data-name="Path 950" d="M96.179,119.293a.668.668,0,0,1-.289-.164,1.089,1.089,0,0,1-.207-.246.813.813,0,0,1-.083-.369,1.731,1.731,0,0,1,.083-.451,1.108,1.108,0,0,1,.289-.328,1.3,1.3,0,0,1,.413-.2,2.11,2.11,0,0,1,.537-.082,3.153,3.153,0,0,1,.62.041,4.318,4.318,0,0,1,.5.123l.041-.082c0-.041.041-.082.041-.164V117.2a.676.676,0,0,0-.207-.492,1.055,1.055,0,0,0-.661-.164,1.708,1.708,0,0,0-.455.041c-.124.041-.289.082-.413.123l-.041-.246c.165-.041.289-.082.413-.123a1.717,1.717,0,0,1,.5-.041,1.241,1.241,0,0,1,.827.246.762.762,0,0,1,.289.656v.164c0,.082-.041.123-.041.2l-.455,1.681h-.289l.124-.492a1.651,1.651,0,0,1-.5.41,1.221,1.221,0,0,1-.661.164A.588.588,0,0,1,96.179,119.293Zm.827-.246a1.679,1.679,0,0,0,.372-.2c.124-.082.207-.2.331-.287a1.278,1.278,0,0,0,.207-.41L98,117.9a2.091,2.091,0,0,0-.5-.082,2.758,2.758,0,0,0-.62-.041,1.284,1.284,0,0,0-.413.041,1.241,1.241,0,0,0-.331.164,1.088,1.088,0,0,0-.207.246.767.767,0,0,0-.083.328.656.656,0,0,0,.207.451.705.705,0,0,0,.537.164A1.583,1.583,0,0,1,97.005,119.047Z" transform="translate(-79.274 -115.152)" fill="#fff"/>
      <path id="Path_951" data-name="Path 951" d="M104.507,117.972a.527.527,0,0,1-.207-.451v-.164c0-.082,0-.082.041-.123l.5-1.845h-.413l.083-.246h.413l.248-.943h.289l-.248.943h.992l-.083.246h-.992l-.5,1.845v.246a.247.247,0,0,0,.124.246.784.784,0,0,0,.331.082,1.832,1.832,0,0,0,.413-.082l-.083.287a.453.453,0,0,1-.207.041H105A.716.716,0,0,1,104.507,117.972Z" transform="translate(-84.378 -113.913)" fill="#fff"/>
      <path id="Path_952" data-name="Path 952" d="M109.885,114.848h.289l-.785,2.911H109.1Zm.289-1.148h.331l-.124.369h-.331Z" transform="translate(-87.195 -113.618)" fill="#fff"/>
      <path id="Path_953" data-name="Path 953" d="M113.644,119.193a1.484,1.484,0,0,1-.413-.287.849.849,0,0,1-.248-.41,1.117,1.117,0,0,1-.083-.533,1.688,1.688,0,0,1,.124-.656,1.718,1.718,0,0,1,.372-.574,1.573,1.573,0,0,1,.537-.369,1.744,1.744,0,0,1,.661-.164,2.111,2.111,0,0,1,.537.082,1.485,1.485,0,0,1,.413.287.849.849,0,0,1,.248.41,1.117,1.117,0,0,1,.083.533,1.687,1.687,0,0,1-.124.656,1.718,1.718,0,0,1-.372.574,1.573,1.573,0,0,1-.537.369,1.726,1.726,0,0,1-.661.123A.611.611,0,0,1,113.644,119.193Zm1.075-.287a1.795,1.795,0,0,0,.785-.779,1.3,1.3,0,0,0,.124-.574,1.016,1.016,0,0,0-.289-.779,1,1,0,0,0-.744-.287,1.281,1.281,0,0,0-.537.123,1.8,1.8,0,0,0-.785.779,1.3,1.3,0,0,0-.124.574,1.016,1.016,0,0,0,.289.779,1.194,1.194,0,0,0,.744.287A1.152,1.152,0,0,0,114.719,118.906Z" transform="translate(-89.424 -115.093)" fill="#fff"/>
      <path id="Path_954" data-name="Path 954" d="M122.027,116.382h.289l-.124.533a1.089,1.089,0,0,0,.207-.246c.083-.082.165-.123.248-.2a2.027,2.027,0,0,1,.289-.123.917.917,0,0,1,.331-.041.977.977,0,0,1,.7.246.927.927,0,0,1,.248.656v.2c0,.082-.041.123-.041.2l-.455,1.64h-.289l.455-1.681c0-.041.041-.123.041-.164v-.164a.86.86,0,0,0-.207-.533.637.637,0,0,0-.537-.2,1.215,1.215,0,0,0-.372.082,1.679,1.679,0,0,0-.372.2,1.108,1.108,0,0,0-.289.328,1.51,1.51,0,0,0-.207.451l-.455,1.64H121.2Z" transform="translate(-94.293 -115.152)" fill="#fff"/>
      <path id="Path_955" data-name="Path 955" d="M130.379,119.293a.668.668,0,0,1-.289-.164,1.088,1.088,0,0,1-.207-.246.813.813,0,0,1-.083-.369,1.732,1.732,0,0,1,.083-.451,1.108,1.108,0,0,1,.289-.328,1.3,1.3,0,0,1,.413-.2,2.11,2.11,0,0,1,.537-.082,3.153,3.153,0,0,1,.62.041,4.319,4.319,0,0,1,.5.123l.041-.082c0-.041.041-.082.041-.164V117.2a.676.676,0,0,0-.207-.492,1.055,1.055,0,0,0-.661-.164,1.708,1.708,0,0,0-.455.041c-.124.041-.289.082-.413.123l-.041-.246c.165-.041.289-.082.413-.123a1.717,1.717,0,0,1,.5-.041,1.241,1.241,0,0,1,.827.246.762.762,0,0,1,.289.656v.164c0,.082-.041.123-.041.2l-.455,1.681h-.289l.124-.492a1.65,1.65,0,0,1-.5.41,1.221,1.221,0,0,1-.661.164A.588.588,0,0,1,130.379,119.293Zm.827-.246a1.679,1.679,0,0,0,.372-.2c.124-.082.207-.2.331-.287a1.278,1.278,0,0,0,.207-.41l.083-.246a2.091,2.091,0,0,0-.5-.082,2.758,2.758,0,0,0-.62-.041,1.284,1.284,0,0,0-.413.041,1.241,1.241,0,0,0-.331.164,1.089,1.089,0,0,0-.207.246.767.767,0,0,0-.083.328.656.656,0,0,0,.207.451.705.705,0,0,0,.537.164A1.583,1.583,0,0,1,131.205,119.047Z" transform="translate(-99.339 -115.152)" fill="#fff"/>
      <path id="Path_956" data-name="Path 956" d="M138.916,113.5h.289l-1.116,4.141H137.8Z" transform="translate(-104.033 -113.5)" fill="#fff"/>
      <path id="Path_957" data-name="Path 957" d="M146.407,117.972a.527.527,0,0,1-.207-.451v-.164c0-.082,0-.082.041-.123l.5-1.845h-.413l.083-.246h.413l.248-.943h.289l-.248.943h.992l-.083.246h-.992l-.5,1.845v.246a.247.247,0,0,0,.124.246.784.784,0,0,0,.331.082,1.832,1.832,0,0,0,.413-.082l-.083.287a.452.452,0,0,1-.207.041H146.9A.645.645,0,0,1,146.407,117.972Z" transform="translate(-108.961 -113.913)" fill="#fff"/>
      <path id="Path_958" data-name="Path 958" d="M151.644,116.441h.289l-.207.82a2.657,2.657,0,0,1,.331-.369,2.268,2.268,0,0,1,.372-.287,1.243,1.243,0,0,1,.413-.164,1.562,1.562,0,0,1,.455-.041l-.083.328h-.041a2.09,2.09,0,0,0-.5.082,1.551,1.551,0,0,0-.5.287,2.156,2.156,0,0,0-.413.451,1.382,1.382,0,0,0-.248.615l-.331,1.189H150.9Z" transform="translate(-111.718 -115.211)" fill="#fff"/>
      <path id="Path_959" data-name="Path 959" d="M156.979,119.293a.668.668,0,0,1-.289-.164,1.088,1.088,0,0,1-.207-.246.813.813,0,0,1-.083-.369,1.732,1.732,0,0,1,.083-.451,1.108,1.108,0,0,1,.289-.328,1.3,1.3,0,0,1,.413-.2,2.11,2.11,0,0,1,.537-.082,3.153,3.153,0,0,1,.62.041,4.317,4.317,0,0,1,.5.123l.041-.082c0-.041.041-.082.041-.164V117.2a.676.676,0,0,0-.207-.492,1.055,1.055,0,0,0-.661-.164,1.708,1.708,0,0,0-.455.041c-.124.041-.289.082-.413.123l-.041-.246c.165-.041.289-.082.413-.123a1.717,1.717,0,0,1,.5-.041,1.241,1.241,0,0,1,.827.246.762.762,0,0,1,.289.656v.164c0,.082-.041.123-.041.2l-.455,1.681h-.289l.124-.492a1.65,1.65,0,0,1-.5.41,1.221,1.221,0,0,1-.661.164A.588.588,0,0,1,156.979,119.293Zm.827-.246a1.679,1.679,0,0,0,.372-.2c.124-.082.207-.2.331-.287a1.278,1.278,0,0,0,.207-.41l.083-.246a2.091,2.091,0,0,0-.5-.082,2.758,2.758,0,0,0-.62-.041,1.284,1.284,0,0,0-.413.041,1.241,1.241,0,0,0-.331.164,1.089,1.089,0,0,0-.207.246.767.767,0,0,0-.083.328.656.656,0,0,0,.207.451.705.705,0,0,0,.537.164A1.583,1.583,0,0,1,157.805,119.047Z" transform="translate(-114.945 -115.152)" fill="#fff"/>
      <path id="Path_960" data-name="Path 960" d="M165.4,117.641a1.942,1.942,0,0,1-.372-.246.737.737,0,0,1-.248-.369,2.042,2.042,0,0,1-.083-.492,2.3,2.3,0,0,1,.124-.738,1.389,1.389,0,0,1,.372-.574,1.573,1.573,0,0,1,.537-.369,1.67,1.67,0,0,1,.62-.123,1.5,1.5,0,0,1,.455.082,2.463,2.463,0,0,1,.331.164l.248.246a1.026,1.026,0,0,1,.165.287l.537-2.009h.289l-1.116,4.141h-.289l.165-.574a2.839,2.839,0,0,1-.537.451,1.288,1.288,0,0,1-.7.2A1.789,1.789,0,0,1,165.4,117.641Zm1.033-.328a1.835,1.835,0,0,0,.455-.328,1.473,1.473,0,0,0,.331-.492,1.3,1.3,0,0,0,.124-.574,1.447,1.447,0,0,0-.083-.41.863.863,0,0,0-.537-.533,1.232,1.232,0,0,0-.413-.082,1.152,1.152,0,0,0-.537.123,1.124,1.124,0,0,0-.413.328,2.6,2.6,0,0,0-.289.492,1.294,1.294,0,0,0-.083.574,1.205,1.205,0,0,0,.083.41.892.892,0,0,0,.207.328.741.741,0,0,0,.289.2,1.215,1.215,0,0,0,.372.082A1.108,1.108,0,0,0,166.436,117.313Z" transform="translate(-119.815 -113.5)" fill="#fff"/>
      <path id="Path_961" data-name="Path 961" d="M174.207,118.081v.082a1.2,1.2,0,0,0,.083.41,1.077,1.077,0,0,0,.5.492,1.231,1.231,0,0,0,.413.082,1.329,1.329,0,0,0,.579-.123,2.784,2.784,0,0,0,.455-.287l.165.2a3.45,3.45,0,0,1-.5.328,1.585,1.585,0,0,1-.661.123,1.553,1.553,0,0,1-.5-.082,1.1,1.1,0,0,1-.413-.246.967.967,0,0,1-.248-.369A1.033,1.033,0,0,1,174,118.2a1.687,1.687,0,0,1,.124-.656,1.986,1.986,0,0,1,.909-.984,1.221,1.221,0,0,1,.661-.164,2.091,2.091,0,0,1,.5.082.642.642,0,0,1,.331.246.791.791,0,0,1,.207.369,1.445,1.445,0,0,1,.083.41,1.517,1.517,0,0,1-.083.492h-2.4C174.207,118.04,174.207,118.04,174.207,118.081Zm2.191-.328v-.2a.794.794,0,0,0-.041-.328.66.66,0,0,0-.165-.287c-.083-.082-.165-.123-.248-.2s-.207-.082-.372-.082a1.5,1.5,0,0,0-.455.082.744.744,0,0,0-.372.246.894.894,0,0,0-.289.369,1.7,1.7,0,0,0-.165.41Z" transform="translate(-125.271 -115.211)" fill="#fff"/>
      <path id="Path_962" data-name="Path 962" d="M180.6,123.284a.9.9,0,0,0,.331-.2.371.371,0,0,0,.124-.287h-.165l.124-.492h.372l-.124.41c-.041.082-.041.164-.083.246s-.083.123-.124.2c-.041.041-.124.082-.165.123a.591.591,0,0,1-.248.082Z" transform="translate(-129.143 -118.692)" fill="#fff"/>
      <path id="Path_963" data-name="Path 963" d="M189.785,114.848h.289l-.785,2.911H189Zm.248-1.148h.331l-.083.369h-.331Z" transform="translate(-134.071 -113.618)" fill="#fff"/>
      <path id="Path_964" data-name="Path 964" d="M192.909,116.382h.289l-.124.533a1.089,1.089,0,0,0,.207-.246c.041-.082.165-.123.248-.2a2.026,2.026,0,0,1,.289-.123.812.812,0,0,1,.331-.041.783.783,0,0,1,.331.082c.083.041.207.082.248.164a.523.523,0,0,1,.165.246.58.58,0,0,1,.083.246,2.012,2.012,0,0,1,.5-.533,1.4,1.4,0,0,1,.7-.2,1.215,1.215,0,0,1,.372.082,1.077,1.077,0,0,1,.5.492,1.189,1.189,0,0,1,.083.369.367.367,0,0,1-.041.2c0,.082-.041.123-.041.2l-.455,1.64H196.3l.455-1.681c0-.041.041-.123.041-.164v-.164a.86.86,0,0,0-.207-.533.558.558,0,0,0-.5-.2,1.215,1.215,0,0,0-.372.082.642.642,0,0,0-.331.246,1.107,1.107,0,0,0-.289.328c-.083.123-.124.287-.207.41l-.455,1.64h-.289l.455-1.681c0-.041.041-.123.041-.164v-.164a.859.859,0,0,0-.207-.533.687.687,0,0,0-.5-.2,1.215,1.215,0,0,0-.372.082.642.642,0,0,0-.331.246,1.108,1.108,0,0,0-.289.328c-.083.123-.124.287-.207.41l-.455,1.64H192Z" transform="translate(-135.831 -115.152)" fill="#fff"/>
      <path id="Path_965" data-name="Path 965" d="M205.992,116.382h.289l-.165.574a2.838,2.838,0,0,1,.537-.451,1.4,1.4,0,0,1,.7-.2,1.5,1.5,0,0,1,.455.082,1.94,1.94,0,0,1,.372.246.737.737,0,0,1,.248.369,2.042,2.042,0,0,1,.083.492,2.3,2.3,0,0,1-.124.738,1.389,1.389,0,0,1-.372.574,1.574,1.574,0,0,1-.537.369,1.67,1.67,0,0,1-.62.123,1.5,1.5,0,0,1-.455-.082,2.461,2.461,0,0,1-.331-.164l-.248-.246a1.026,1.026,0,0,1-.165-.287l-.455,1.64H205Zm1.405,2.583a1.124,1.124,0,0,0,.413-.328,2.6,2.6,0,0,0,.289-.492,1.293,1.293,0,0,0,.083-.574,1.2,1.2,0,0,0-.083-.41.891.891,0,0,0-.207-.328.741.741,0,0,0-.289-.2,1.215,1.215,0,0,0-.372-.082,1.281,1.281,0,0,0-.537.123,1.835,1.835,0,0,0-.455.328,1.474,1.474,0,0,0-.331.492,1.3,1.3,0,0,0-.124.574,1.446,1.446,0,0,0,.083.41.892.892,0,0,0,.207.328.9.9,0,0,0,.331.2,1.232,1.232,0,0,0,.413.082A1.209,1.209,0,0,0,207.4,118.965Z" transform="translate(-143.458 -115.152)" fill="#fff"/>
      <path id="Path_966" data-name="Path 966" d="M215.844,119.193a1.484,1.484,0,0,1-.413-.287.849.849,0,0,1-.248-.41,1.117,1.117,0,0,1-.083-.533,1.687,1.687,0,0,1,.124-.656,1.717,1.717,0,0,1,.372-.574,1.573,1.573,0,0,1,.537-.369,1.744,1.744,0,0,1,.661-.164,2.111,2.111,0,0,1,.537.082,1.485,1.485,0,0,1,.413.287.849.849,0,0,1,.248.41,1.117,1.117,0,0,1,.083.533,1.687,1.687,0,0,1-.124.656,1.718,1.718,0,0,1-.372.574,1.573,1.573,0,0,1-.537.369,1.726,1.726,0,0,1-.661.123A.611.611,0,0,1,215.844,119.193Zm1.075-.287a1.795,1.795,0,0,0,.785-.779,1.3,1.3,0,0,0,.124-.574,1.016,1.016,0,0,0-.289-.779,1.194,1.194,0,0,0-.744-.287,1.281,1.281,0,0,0-.537.123,1.795,1.795,0,0,0-.785.779,1.3,1.3,0,0,0-.124.574,1.016,1.016,0,0,0,.289.779,1.194,1.194,0,0,0,.744.287A1.281,1.281,0,0,0,216.919,118.906Z" transform="translate(-149.384 -115.093)" fill="#fff"/>
      <path id="Path_967" data-name="Path 967" d="M224.244,116.441h.289l-.207.82a2.66,2.66,0,0,1,.331-.369,2.267,2.267,0,0,1,.372-.287,1.243,1.243,0,0,1,.413-.164,1.562,1.562,0,0,1,.455-.041l-.083.328h-.041a2.09,2.09,0,0,0-.5.082,1.551,1.551,0,0,0-.5.287,2.156,2.156,0,0,0-.413.451,1.383,1.383,0,0,0-.248.615l-.331,1.189H223.5Z" transform="translate(-154.312 -115.211)" fill="#fff"/>
      <path id="Path_968" data-name="Path 968" d="M229.907,117.972a.527.527,0,0,1-.207-.451v-.164c0-.082,0-.082.041-.123l.5-1.845h-.413l.083-.246h.413l.248-.943h.289l-.248.943h.992l-.083.246h-.992l-.5,1.845v.246a.247.247,0,0,0,.124.246.784.784,0,0,0,.331.082,1.832,1.832,0,0,0,.413-.082l-.083.287a.453.453,0,0,1-.207.041H230.4A.716.716,0,0,1,229.907,117.972Z" transform="translate(-157.949 -113.913)" fill="#fff"/>
      <path id="Path_969" data-name="Path 969" d="M241.3,117.085a2.063,2.063,0,0,1-.331.287,1.452,1.452,0,0,1-.331.2l-.372.123a1.417,1.417,0,0,1-.413.041,1.5,1.5,0,0,1-.455-.082,1.679,1.679,0,0,1-.372-.205,2.275,2.275,0,0,1-.248-.328,1.2,1.2,0,0,1-.083-.41,1.029,1.029,0,0,1,.372-.82,2.232,2.232,0,0,1,1.033-.533,1.658,1.658,0,0,1-.207-.369,1.188,1.188,0,0,1-.083-.369,1.2,1.2,0,0,1,.083-.41.638.638,0,0,1,.248-.328.9.9,0,0,1,.331-.2,1.232,1.232,0,0,1,.413-.082,1.288,1.288,0,0,1,.7.2.831.831,0,0,1,.248.615.959.959,0,0,1-.083.328,1.247,1.247,0,0,1-.207.287,1.811,1.811,0,0,1-.413.246,2.19,2.19,0,0,1-.62.2l.827,1.148a1.822,1.822,0,0,0,.331-.451,6.068,6.068,0,0,0,.331-.533l.207.123c-.124.2-.248.41-.372.574a4.36,4.36,0,0,1-.372.451l.5.738-.207.164Zm-.744.246a1.979,1.979,0,0,0,.62-.451l-.909-1.271a1.869,1.869,0,0,0-.951.451.87.87,0,0,0-.289.656.741.741,0,0,0,.248.574,1.021,1.021,0,0,0,.62.205A1.318,1.318,0,0,0,240.56,117.331Zm.372-2.173a3,3,0,0,0,.372-.2,1.089,1.089,0,0,0,.207-.246.516.516,0,0,0,.041-.246.473.473,0,0,0-.165-.41.662.662,0,0,0-.5-.164.709.709,0,0,0-.289.041.757.757,0,0,0-.413.41.693.693,0,0,0-.041.287.767.767,0,0,0,.083.328,1.658,1.658,0,0,0,.207.369A1.76,1.76,0,0,0,240.932,115.158Z" transform="translate(-163.23 -113.559)" fill="#fff"/>
      <path id="Path_970" data-name="Path 970" d="M253.207,118.081v.082a1.2,1.2,0,0,0,.083.41,1.077,1.077,0,0,0,.5.492,1.231,1.231,0,0,0,.413.082,1.329,1.329,0,0,0,.579-.123,2.782,2.782,0,0,0,.455-.287l.165.2a3.449,3.449,0,0,1-.5.328,1.585,1.585,0,0,1-.661.123,1.554,1.554,0,0,1-.5-.082,1.1,1.1,0,0,1-.413-.246.968.968,0,0,1-.248-.369A1.033,1.033,0,0,1,253,118.2a1.687,1.687,0,0,1,.124-.656,1.986,1.986,0,0,1,.909-.984,1.221,1.221,0,0,1,.661-.164,2.091,2.091,0,0,1,.5.082.642.642,0,0,1,.331.246.791.791,0,0,1,.207.369,1.447,1.447,0,0,1,.083.41,1.518,1.518,0,0,1-.083.492h-2.4C253.207,118.04,253.207,118.04,253.207,118.081Zm2.149-.328v-.2a.794.794,0,0,0-.041-.328.66.66,0,0,0-.165-.287c-.083-.082-.165-.123-.248-.2s-.207-.082-.372-.082a1.5,1.5,0,0,0-.455.082.744.744,0,0,0-.372.246.894.894,0,0,0-.289.369,1.708,1.708,0,0,0-.165.41Z" transform="translate(-171.619 -115.211)" fill="#fff"/>
      <path id="Path_971" data-name="Path 971" d="M261.471,117.894l-.785-1.394h.331l.661,1.23,1.281-1.23h.372l-1.529,1.435.827,1.476H262.3l-.661-1.312-1.364,1.312H259.9Z" transform="translate(-175.667 -115.27)" fill="#fff"/>
      <path id="Path_972" data-name="Path 972" d="M268.575,116.382h.289l-.165.574a2.839,2.839,0,0,1,.537-.451,1.4,1.4,0,0,1,.7-.2,1.5,1.5,0,0,1,.455.082,1.941,1.941,0,0,1,.372.246.737.737,0,0,1,.248.369,2.042,2.042,0,0,1,.083.492,2.3,2.3,0,0,1-.124.738,1.389,1.389,0,0,1-.372.574,1.574,1.574,0,0,1-.537.369,1.67,1.67,0,0,1-.62.123,1.5,1.5,0,0,1-.455-.082,2.463,2.463,0,0,1-.331-.164l-.248-.246a1.026,1.026,0,0,1-.165-.287l-.455,1.64H267.5Zm1.405,2.583a1.124,1.124,0,0,0,.413-.328,1.415,1.415,0,0,0,.289-.492,1.293,1.293,0,0,0,.083-.574,1.2,1.2,0,0,0-.083-.41.892.892,0,0,0-.207-.328.741.741,0,0,0-.289-.2,1.215,1.215,0,0,0-.372-.082,1.281,1.281,0,0,0-.537.123,1.835,1.835,0,0,0-.455.328,1.473,1.473,0,0,0-.331.492,1.3,1.3,0,0,0-.124.574,1.446,1.446,0,0,0,.083.41.893.893,0,0,0,.207.328.9.9,0,0,0,.331.2,1.232,1.232,0,0,0,.413.082A1.209,1.209,0,0,0,269.98,118.965Z" transform="translate(-180.126 -115.152)" fill="#fff"/>
      <path id="Path_973" data-name="Path 973" d="M278.544,119.193a1.484,1.484,0,0,1-.413-.287.849.849,0,0,1-.248-.41,1.117,1.117,0,0,1-.083-.533,1.688,1.688,0,0,1,.124-.656,1.718,1.718,0,0,1,.372-.574,1.573,1.573,0,0,1,.537-.369,1.744,1.744,0,0,1,.661-.164,2.111,2.111,0,0,1,.537.082,1.484,1.484,0,0,1,.413.287.849.849,0,0,1,.248.41,1.117,1.117,0,0,1,.083.533,1.687,1.687,0,0,1-.124.656,1.718,1.718,0,0,1-.372.574,1.573,1.573,0,0,1-.537.369,1.725,1.725,0,0,1-.661.123A.6.6,0,0,1,278.544,119.193Zm1.075-.287a1.795,1.795,0,0,0,.785-.779,1.3,1.3,0,0,0,.124-.574,1.016,1.016,0,0,0-.289-.779,1.194,1.194,0,0,0-.744-.287,1.281,1.281,0,0,0-.537.123,1.795,1.795,0,0,0-.785.779,1.3,1.3,0,0,0-.124.574,1.016,1.016,0,0,0,.289.779,1.194,1.194,0,0,0,.744.287A1.281,1.281,0,0,0,279.619,118.906Z" transform="translate(-186.169 -115.093)" fill="#fff"/>
      <path id="Path_974" data-name="Path 974" d="M286.944,116.441h.289l-.207.82a2.661,2.661,0,0,1,.331-.369,2.271,2.271,0,0,1,.372-.287,1.244,1.244,0,0,1,.413-.164,1.562,1.562,0,0,1,.455-.041l-.083.328h-.041a2.091,2.091,0,0,0-.5.082,1.551,1.551,0,0,0-.5.287,2.154,2.154,0,0,0-.413.451,1.382,1.382,0,0,0-.248.615l-.331,1.189H286.2Z" transform="translate(-191.097 -115.211)" fill="#fff"/>
      <path id="Path_975" data-name="Path 975" d="M292.607,117.972a.527.527,0,0,1-.207-.451v-.164c0-.082,0-.082.041-.123l.5-1.845h-.413l.083-.246h.413l.248-.943h.289l-.248.943h.992l-.083.246h-.992l-.5,1.845v.246a.247.247,0,0,0,.124.246.784.784,0,0,0,.331.082,1.832,1.832,0,0,0,.413-.082l-.083.287a.453.453,0,0,1-.207.041H293.1A.716.716,0,0,1,292.607,117.972Z" transform="translate(-194.735 -113.913)" fill="#fff"/>
    </g>
    <path id="Path_976" data-name="Path 976" d="M69.893,36.2l-4.3,3.813-.5.451-.992.9-2.439,2.173L60.18,44.85l-1.24-1.025-.827-.656L57.7,39.234Z" transform="translate(-34.513 -21.851)" fill="#fff"/>
    <g id="Group_271" data-name="Group 271">
      <g id="Group_270" data-name="Group 270" transform="translate(3.431)">
        <path id="Path_977" data-name="Path 977" d="M58.092,1.2,17.96,11.982,9.9,5.3Z" transform="translate(-9.9 -1.2)" fill="#fff"/>
        <path id="Path_978" data-name="Path 978" d="M38.768,40.4,31.7,44.005,34.841,37.2Z" transform="translate(-22.69 -22.441)" fill="url(#linear-gradient)"/>
        <path id="Path_979" data-name="Path 979" d="M75.341,1.2,62.776,12.31,59.1,15.549l-4.3,3.813-.5.451-.992.9-2.439,2.173L49.385,24.2l-1.24-1.025-.827-.656-4.092-3.362-2.4-1.927L39.3,15.959h0Z" transform="translate(-27.149 -1.2)" fill="url(#linear-gradient-2)"/>
      </g>
      <path id="Path_980" data-name="Path 980" d="M40.819,58.3c.165-.451.289-.9.455-1.353s.331-.9.537-1.353a12.612,12.612,0,0,1,.579-1.312c.165-.328.331-.656.537-.984l2.232,1.8a3.416,3.416,0,0,0-.331.492c-.248.369-.455.738-.7,1.107s-.413.779-.62,1.148l-.579,1.189a23.277,23.277,0,0,0-1.653,5.043c-.207.861-.289,1.763-.413,2.665-.041.451-.041.9-.041,1.353v.656l.041.656a21.959,21.959,0,0,0,.992,5.371,21.168,21.168,0,0,1-1.736-5.248l-.124-.7c-.041-.246-.041-.451-.083-.7-.041-.451-.124-.943-.124-1.394,0-.943-.041-1.886.041-2.829A23.924,23.924,0,0,1,40.819,58.3Z" transform="translate(-23.996 -31.941)" fill="#e53c3c"/>
      <path id="Path_981" data-name="Path 981" d="M1.93,40.837a24.739,24.739,0,0,1,2.4-7.215,23.915,23.915,0,0,1,1.984-3.28c.372-.533.744-1.025,1.157-1.558.289-.328.537-.656.868-.984l2.232,1.845c-.289.287-.62.615-.909.943-.372.41-.744.861-1.116,1.312a26.6,26.6,0,0,0-1.9,2.87A22.514,22.514,0,0,0,4.2,41.206a22.868,22.868,0,0,0-.413,6.928A24.6,24.6,0,0,0,5.36,54.981,27.48,27.48,0,0,0,13.833,66.3a37.563,37.563,0,0,0,6.034,4.018,40.3,40.3,0,0,0,6.7,2.911A40.467,40.467,0,0,1,19.7,70.682a39.546,39.546,0,0,1-6.324-3.772A28.969,28.969,0,0,1,3.955,55.6,25.792,25.792,0,0,1,1.888,48.38,23.107,23.107,0,0,1,1.93,40.837Z" transform="translate(-1.598 -16.895)" fill="#fff"/>
    </g>
  </g>
</svg>
