<svg id="logo" xmlns="http://www.w3.org/2000/svg" xmlns:xlink="http://www.w3.org/1999/xlink" width="128.42" height="42" viewBox="0 0 128.42 42">
  <defs>
    <linearGradient id="linear-gradient" y1="0.499" x2="1" y2="0.499" gradientUnits="objectBoundingBox">
      <stop offset="0" stop-color="#1a5aaf"/>
      <stop offset="1" stop-color="#180b80"/>
    </linearGradient>
    <linearGradient id="linear-gradient-2" x1="-0.002" y1="0.501" x2="0.998" y2="0.501" gradientUnits="objectBoundingBox">
      <stop offset="0" stop-color="#eb2326"/>
      <stop offset="1" stop-color="#bc000a"/>
    </linearGradient>
    <linearGradient id="linear-gradient-3" x1="0" y1="0.5" x2="0.999" y2="0.5" xlink:href="#linear-gradient-2"/>
    <linearGradient id="linear-gradient-4" x1="-0.001" y1="0.501" x2="0.996" y2="0.501" xlink:href="#linear-gradient"/>
  </defs>
  <g id="logo-2" data-name="logo">
    <g id="Group_268" data-name="Group 268" transform="translate(22.2 7.755)">
      <path id="Path_940" data-name="Path 940" d="M65.765,45.5l-.3,1.409,1.068-.939.513-.427H65.765Zm15.376,0L78.834,55.876H70.8L73.111,45.5H69.352l-3.374,2.989-1.153,1.025-1.409,6.362-1.58,7h.043l-.171.683h-.043L59.7,72.4h7.389l1.068-4.91H68.2l1.025-4.612h7.987L75.076,72.4h7.047L85.2,58.609l.6-2.733L88.1,45.5H81.14Z" transform="translate(-59.7 -45.5)" fill="#eb2326"/>
      <path id="Path_941" data-name="Path 941" d="M134.591,45.628l.043-.128-.043.043v.085L115.5,72.444h8.115L131.132,61.9l2.05,10.547h8.371Z" transform="translate(-91.668 -45.5)" fill="#eb2326"/>
      <path id="Path_942" data-name="Path 942" d="M204.036,45.5l-3.374,15.2-6.406-15.2h-6.876L181.4,72.4h6.876l3.161-14.134,6.62,14.134h6.748l.256-1.153L210.785,45.5h-6.748Z" transform="translate(-129.422 -45.5)" fill="#eb2326"/>
      <path id="Path_943" data-name="Path 943" d="M271.333,45.5H249.722l-1.538,6.832h12.728L245.238,65.569,243.7,72.4h21.611l1.538-6.832H254.762l14.991-13.237Z" transform="translate(-165.113 -45.5)" fill="#eb2326"/>
    </g>
    <g id="Group_269" data-name="Group 269" transform="translate(20.663 36.791)">
      <path id="Path_944" data-name="Path 944" d="M56.911,114.9h.3l-.811,3.032h-.3Zm.3-1.2h.342l-.128.384h-.342Z" transform="translate(-56.1 -113.615)" fill="#27348b"/>
      <path id="Path_945" data-name="Path 945" d="M60.254,116.385h.3l-.128.555a1.132,1.132,0,0,0,.214-.256c.085-.085.171-.128.256-.214a2.084,2.084,0,0,1,.3-.128.941.941,0,0,1,.342-.043,1,1,0,0,1,.726.256.97.97,0,0,1,.256.683v.213c0,.085-.043.128-.043.214l-.47,1.708h-.3l.47-1.751c0-.043.043-.128.043-.171v-.171a.9.9,0,0,0-.214-.555.656.656,0,0,0-.555-.214,1.247,1.247,0,0,0-.384.085,1.731,1.731,0,0,0-.384.214,1.151,1.151,0,0,0-.3.342,1.578,1.578,0,0,0-.214.47l-.47,1.708h-.3Z" transform="translate(-57.991 -115.104)" fill="#27348b"/>
      <path id="Path_946" data-name="Path 946" d="M69.014,118.128a.551.551,0,0,1-.214-.47v-.171c0-.085,0-.085.043-.128l.513-1.921h-.427l.085-.256h.427l.256-.982H70l-.256.982h1.025l-.085.256H69.654l-.513,1.921v.256a.258.258,0,0,0,.128.256.8.8,0,0,0,.342.085,1.879,1.879,0,0,0,.427-.085l-.085.3a.465.465,0,0,1-.214.043h-.214A.662.662,0,0,1,69.014,118.128Z" transform="translate(-63.376 -113.901)" fill="#27348b"/>
      <path id="Path_947" data-name="Path 947" d="M74.314,118.151v.085a1.263,1.263,0,0,0,.085.427,1.117,1.117,0,0,0,.513.512,1.263,1.263,0,0,0,.427.085,1.364,1.364,0,0,0,.6-.128,2.872,2.872,0,0,0,.47-.3l.171.213a3.563,3.563,0,0,1-.513.342,1.626,1.626,0,0,1-.683.128,1.593,1.593,0,0,1-.513-.085.886.886,0,0,1-.427-.256,1.008,1.008,0,0,1-.256-.384,1.083,1.083,0,0,1-.085-.512,1.77,1.77,0,0,1,.128-.683,1.791,1.791,0,0,1,.384-.6,1.762,1.762,0,0,1,.555-.427,1.254,1.254,0,0,1,.683-.171,2.145,2.145,0,0,1,.513.085.664.664,0,0,1,.342.256.826.826,0,0,1,.214.384,1.517,1.517,0,0,1,.085.427,1.593,1.593,0,0,1-.085.512H74.442C74.314,118.108,74.314,118.108,74.314,118.151Zm2.264-.342V117.6a.832.832,0,0,0-.043-.342.688.688,0,0,0-.171-.3c-.085-.085-.171-.128-.256-.214a.853.853,0,0,0-.384-.085,1.536,1.536,0,0,0-.47.085.768.768,0,0,0-.384.256.93.93,0,0,0-.3.384,1.784,1.784,0,0,0-.171.427Z" transform="translate(-66.412 -115.162)" fill="#27348b"/>
      <path id="Path_948" data-name="Path 948" d="M82.354,116.443h.3l-.214.854a2.762,2.762,0,0,1,.342-.384,2.346,2.346,0,0,1,.384-.3,1.279,1.279,0,0,1,.427-.171,1.6,1.6,0,0,1,.47-.043l-.085.342h-.128a2.143,2.143,0,0,0-.513.085,1.6,1.6,0,0,0-.513.3,2.238,2.238,0,0,0-.427.47,1.446,1.446,0,0,0-.256.64l-.342,1.238h-.3Z" transform="translate(-70.652 -115.162)" fill="#27348b"/>
      <path id="Path_949" data-name="Path 949" d="M87.854,116.385h.3l-.128.555a1.132,1.132,0,0,0,.214-.256c.085-.085.171-.128.256-.214a2.084,2.084,0,0,1,.3-.128.941.941,0,0,1,.342-.043,1,1,0,0,1,.726.256.97.97,0,0,1,.256.683v.213c0,.085-.043.128-.043.214l-.47,1.708h-.3l.47-1.751c0-.043.043-.128.043-.171v-.171a.9.9,0,0,0-.214-.555.656.656,0,0,0-.555-.214,1.247,1.247,0,0,0-.384.085,1.731,1.731,0,0,0-.384.214,1.151,1.151,0,0,0-.3.342,1.578,1.578,0,0,0-.214.47l-.47,1.708H87Z" transform="translate(-73.803 -115.104)" fill="#27348b"/>
      <path id="Path_950" data-name="Path 950" d="M96.2,119.417a.688.688,0,0,1-.3-.171,1.133,1.133,0,0,1-.214-.256.852.852,0,0,1-.085-.384,1.816,1.816,0,0,1,.085-.47,1.151,1.151,0,0,1,.3-.342,1.336,1.336,0,0,1,.427-.214,2.165,2.165,0,0,1,.555-.085,3.233,3.233,0,0,1,.641.043,4.431,4.431,0,0,1,.513.128l.043-.085c0-.043.043-.085.043-.171v-.171a.707.707,0,0,0-.214-.512,1.084,1.084,0,0,0-.683-.171,1.751,1.751,0,0,0-.47.043c-.128.043-.3.085-.427.128l-.043-.256c.171-.043.3-.085.427-.128a1.761,1.761,0,0,1,.513-.043,1.276,1.276,0,0,1,.854.256.8.8,0,0,1,.3.683v.171c0,.085-.043.128-.043.214l-.47,1.751h-.3l.128-.512a1.708,1.708,0,0,1-.513.427,1.254,1.254,0,0,1-.683.171A.6.6,0,0,1,96.2,119.417Zm.854-.256a1.732,1.732,0,0,0,.384-.214c.128-.085.214-.214.342-.3a1.335,1.335,0,0,0,.214-.427l.085-.256a2.144,2.144,0,0,0-.513-.085,2.828,2.828,0,0,0-.641-.043,1.317,1.317,0,0,0-.427.043,1.279,1.279,0,0,0-.342.171,1.132,1.132,0,0,0-.214.256.8.8,0,0,0-.085.342.686.686,0,0,0,.214.47.725.725,0,0,0,.555.171A1.627,1.627,0,0,1,97.052,119.161Z" transform="translate(-78.73 -115.104)" fill="#27348b"/>
      <path id="Path_951" data-name="Path 951" d="M104.514,118.128a.551.551,0,0,1-.214-.47v-.171c0-.085,0-.085.043-.128l.513-1.921h-.427l.085-.256h.427l.256-.982h.3l-.256.982h1.025l-.085.256h-1.025l-.513,1.921v.256a.258.258,0,0,0,.128.256.8.8,0,0,0,.342.085,1.879,1.879,0,0,0,.427-.085l-.085.3a.465.465,0,0,1-.214.043h-.214A.735.735,0,0,1,104.514,118.128Z" transform="translate(-83.714 -113.901)" fill="#27348b"/>
      <path id="Path_952" data-name="Path 952" d="M109.911,114.9h.3l-.812,3.032h-.3Zm.3-1.2h.342l-.128.384h-.342Z" transform="translate(-86.464 -113.615)" fill="#27348b"/>
      <path id="Path_953" data-name="Path 953" d="M113.669,119.317a1.534,1.534,0,0,1-.427-.3.886.886,0,0,1-.256-.427,1.172,1.172,0,0,1-.085-.555,1.77,1.77,0,0,1,.128-.683,1.791,1.791,0,0,1,.384-.6,1.625,1.625,0,0,1,.555-.384,1.791,1.791,0,0,1,.683-.171,2.165,2.165,0,0,1,.555.085,1.535,1.535,0,0,1,.427.3.886.886,0,0,1,.256.427,1.172,1.172,0,0,1,.085.555,1.77,1.77,0,0,1-.128.683,1.791,1.791,0,0,1-.384.6,1.625,1.625,0,0,1-.555.384,1.771,1.771,0,0,1-.683.128A.627.627,0,0,1,113.669,119.317Zm1.11-.3a1.862,1.862,0,0,0,.811-.811,1.364,1.364,0,0,0,.128-.6,1.063,1.063,0,0,0-.3-.811,1.029,1.029,0,0,0-.769-.3,1.315,1.315,0,0,0-.555.128,1.862,1.862,0,0,0-.811.811,1.364,1.364,0,0,0-.128.6,1.063,1.063,0,0,0,.3.811,1.228,1.228,0,0,0,.769.3A1.183,1.183,0,0,0,114.779,119.018Z" transform="translate(-88.641 -115.047)" fill="#27348b"/>
      <path id="Path_954" data-name="Path 954" d="M122.054,116.385h.3l-.128.555a1.133,1.133,0,0,0,.214-.256c.085-.085.171-.128.256-.214a2.084,2.084,0,0,1,.3-.128.941.941,0,0,1,.342-.043,1,1,0,0,1,.726.256.97.97,0,0,1,.256.683v.213c0,.085-.043.128-.043.214l-.47,1.708h-.3l.47-1.751c0-.043.043-.128.043-.171v-.171a.9.9,0,0,0-.214-.555.656.656,0,0,0-.555-.214,1.247,1.247,0,0,0-.384.085,1.731,1.731,0,0,0-.384.214,1.151,1.151,0,0,0-.3.342,1.579,1.579,0,0,0-.214.47l-.47,1.708h-.3Z" transform="translate(-93.396 -115.104)" fill="#27348b"/>
      <path id="Path_955" data-name="Path 955" d="M130.4,119.417a.688.688,0,0,1-.3-.171,1.131,1.131,0,0,1-.214-.256.853.853,0,0,1-.085-.384,1.816,1.816,0,0,1,.085-.47,1.151,1.151,0,0,1,.3-.342,1.336,1.336,0,0,1,.427-.214,2.165,2.165,0,0,1,.555-.085,3.233,3.233,0,0,1,.641.043,4.43,4.43,0,0,1,.513.128l.043-.085c0-.043.043-.085.043-.171v-.171a.707.707,0,0,0-.214-.512,1.084,1.084,0,0,0-.683-.171,1.751,1.751,0,0,0-.47.043c-.128.043-.3.085-.427.128l-.043-.256c.171-.043.3-.085.427-.128a1.761,1.761,0,0,1,.513-.043,1.276,1.276,0,0,1,.854.256.8.8,0,0,1,.3.683v.171c0,.085-.043.128-.043.214l-.47,1.751h-.3l.128-.512a1.708,1.708,0,0,1-.513.427,1.254,1.254,0,0,1-.683.171A.6.6,0,0,1,130.4,119.417Zm.854-.256a1.731,1.731,0,0,0,.384-.214c.128-.085.214-.214.342-.3a1.336,1.336,0,0,0,.214-.427l.085-.256a2.145,2.145,0,0,0-.513-.085,2.828,2.828,0,0,0-.641-.043,1.317,1.317,0,0,0-.427.043,1.278,1.278,0,0,0-.342.171,1.133,1.133,0,0,0-.214.256.8.8,0,0,0-.085.342.686.686,0,0,0,.214.47.725.725,0,0,0,.555.171A1.627,1.627,0,0,1,131.252,119.161Z" transform="translate(-98.323 -115.104)" fill="#27348b"/>
      <path id="Path_956" data-name="Path 956" d="M138.953,113.5h.3l-1.153,4.313h-.3Z" transform="translate(-102.906 -113.5)" fill="#27348b"/>
      <path id="Path_957" data-name="Path 957" d="M146.414,118.128a.551.551,0,0,1-.214-.47v-.171c0-.085,0-.085.043-.128l.513-1.921h-.427l.085-.256h.427l.256-.982h.3l-.256.982h1.025l-.085.256h-1.025l-.513,1.921v.256a.258.258,0,0,0,.128.256.8.8,0,0,0,.342.085,1.879,1.879,0,0,0,.427-.085l-.085.3a.464.464,0,0,1-.214.043h-.214A.662.662,0,0,1,146.414,118.128Z" transform="translate(-107.718 -113.901)" fill="#27348b"/>
      <path id="Path_958" data-name="Path 958" d="M151.669,116.443h.3l-.214.854a2.762,2.762,0,0,1,.342-.384,2.347,2.347,0,0,1,.384-.3,1.279,1.279,0,0,1,.427-.171,1.6,1.6,0,0,1,.47-.043l-.085.342h-.043a2.144,2.144,0,0,0-.512.085,1.6,1.6,0,0,0-.513.3,2.238,2.238,0,0,0-.427.47,1.446,1.446,0,0,0-.256.64l-.342,1.238h-.3Z" transform="translate(-110.411 -115.162)" fill="#27348b"/>
      <path id="Path_959" data-name="Path 959" d="M157,119.417a.688.688,0,0,1-.3-.171,1.132,1.132,0,0,1-.214-.256.853.853,0,0,1-.085-.384,1.816,1.816,0,0,1,.085-.47,1.151,1.151,0,0,1,.3-.342,1.336,1.336,0,0,1,.427-.214,2.165,2.165,0,0,1,.555-.085,3.233,3.233,0,0,1,.641.043,4.429,4.429,0,0,1,.512.128l.043-.085c0-.043.043-.085.043-.171v-.171a.707.707,0,0,0-.214-.512,1.084,1.084,0,0,0-.683-.171,1.751,1.751,0,0,0-.47.043c-.128.043-.3.085-.427.128l-.043-.256c.171-.043.3-.085.427-.128a1.76,1.76,0,0,1,.513-.043,1.276,1.276,0,0,1,.854.256.8.8,0,0,1,.3.683v.171c0,.085-.043.128-.043.214l-.47,1.751h-.3l.128-.512a1.709,1.709,0,0,1-.513.427,1.254,1.254,0,0,1-.683.171A.6.6,0,0,1,157,119.417Zm.854-.256a1.732,1.732,0,0,0,.384-.214c.128-.085.214-.214.342-.3a1.335,1.335,0,0,0,.214-.427l.085-.256a2.145,2.145,0,0,0-.513-.085,2.828,2.828,0,0,0-.641-.043,1.317,1.317,0,0,0-.427.043,1.278,1.278,0,0,0-.342.171,1.132,1.132,0,0,0-.214.256.8.8,0,0,0-.085.342.686.686,0,0,0,.214.47.725.725,0,0,0,.555.171A1.627,1.627,0,0,1,157.852,119.161Z" transform="translate(-113.562 -115.104)" fill="#27348b"/>
      <path id="Path_960" data-name="Path 960" d="M165.426,117.813a2.006,2.006,0,0,1-.384-.256.768.768,0,0,1-.256-.384,2.142,2.142,0,0,1-.085-.512,2.417,2.417,0,0,1,.128-.769,1.447,1.447,0,0,1,.384-.6,1.625,1.625,0,0,1,.555-.384,1.714,1.714,0,0,1,.641-.128,1.535,1.535,0,0,1,.47.085,2.533,2.533,0,0,1,.342.171l.256.256a1.07,1.07,0,0,1,.171.3l.555-2.092h.3l-1.153,4.313h-.3l.171-.6a2.94,2.94,0,0,1-.555.47,1.324,1.324,0,0,1-.726.214A1.835,1.835,0,0,1,165.426,117.813Zm1.068-.342a1.9,1.9,0,0,0,.47-.342,1.535,1.535,0,0,0,.342-.512,1.363,1.363,0,0,0,.128-.6,1.517,1.517,0,0,0-.085-.427.9.9,0,0,0-.555-.555,1.264,1.264,0,0,0-.427-.085,1.182,1.182,0,0,0-.555.128,1.163,1.163,0,0,0-.427.342,2.713,2.713,0,0,0-.3.512,1.357,1.357,0,0,0-.085.6,1.264,1.264,0,0,0,.085.427.93.93,0,0,0,.214.342.766.766,0,0,0,.3.214,1.247,1.247,0,0,0,.384.085A1.138,1.138,0,0,0,166.494,117.471Z" transform="translate(-118.317 -113.5)" fill="#27348b"/>
      <path id="Path_961" data-name="Path 961" d="M174.214,118.151v.085a1.262,1.262,0,0,0,.085.427,1.117,1.117,0,0,0,.513.512,1.263,1.263,0,0,0,.427.085,1.364,1.364,0,0,0,.6-.128,2.873,2.873,0,0,0,.47-.3l.171.213a3.563,3.563,0,0,1-.513.342,1.626,1.626,0,0,1-.683.128,1.593,1.593,0,0,1-.513-.085,1.138,1.138,0,0,1-.427-.256,1.008,1.008,0,0,1-.256-.384,1.083,1.083,0,0,1-.085-.512,1.77,1.77,0,0,1,.128-.683,1.791,1.791,0,0,1,.384-.6,1.762,1.762,0,0,1,.555-.427,1.254,1.254,0,0,1,.683-.171,2.144,2.144,0,0,1,.513.085.664.664,0,0,1,.342.256.825.825,0,0,1,.214.384,1.516,1.516,0,0,1,.085.427,1.591,1.591,0,0,1-.085.512h-2.477C174.214,118.108,174.214,118.108,174.214,118.151Zm2.264-.342V117.6a.833.833,0,0,0-.043-.342.688.688,0,0,0-.171-.3c-.085-.085-.171-.128-.256-.214s-.214-.085-.384-.085a1.536,1.536,0,0,0-.47.085.768.768,0,0,0-.384.256.93.93,0,0,0-.3.384,1.783,1.783,0,0,0-.171.427Z" transform="translate(-123.645 -115.162)" fill="#27348b"/>
      <path id="Path_962" data-name="Path 962" d="M180.6,123.325a.93.93,0,0,0,.342-.213.388.388,0,0,0,.128-.3H180.9l.128-.512h.384l-.128.427c-.043.085-.043.171-.085.256s-.085.128-.128.213c-.043.043-.128.085-.171.128a.607.607,0,0,1-.256.085Z" transform="translate(-127.426 -118.542)" fill="#27348b"/>
      <path id="Path_963" data-name="Path 963" d="M189.811,114.9h.3l-.812,3.032H189Zm.256-1.2h.342l-.085.384h-.342Z" transform="translate(-132.238 -113.615)" fill="#27348b"/>
      <path id="Path_964" data-name="Path 964" d="M192.94,116.385h.3l-.128.555a1.131,1.131,0,0,0,.214-.256c.043-.085.171-.128.256-.214a2.084,2.084,0,0,1,.3-.128.833.833,0,0,1,.342-.043.8.8,0,0,1,.342.085c.085.043.214.085.256.171a.545.545,0,0,1,.171.256.607.607,0,0,1,.085.256,2.089,2.089,0,0,1,.513-.555,1.44,1.44,0,0,1,.726-.213,1.247,1.247,0,0,1,.384.085,1.118,1.118,0,0,1,.513.512,1.247,1.247,0,0,1,.085.384.385.385,0,0,1-.043.214c0,.085-.043.128-.043.213l-.47,1.708h-.3l.47-1.751c0-.043.043-.128.043-.171v-.171a.9.9,0,0,0-.214-.555.575.575,0,0,0-.513-.214,1.247,1.247,0,0,0-.384.085.664.664,0,0,0-.342.256,1.151,1.151,0,0,0-.3.342c-.085.128-.128.3-.214.427l-.47,1.708h-.3l.47-1.751c0-.043.043-.128.043-.171v-.171a.9.9,0,0,0-.214-.555.707.707,0,0,0-.513-.214,1.247,1.247,0,0,0-.384.085.664.664,0,0,0-.342.256,1.151,1.151,0,0,0-.3.342c-.085.128-.128.3-.214.427l-.47,1.708H192Z" transform="translate(-133.957 -115.104)" fill="#27348b"/>
      <path id="Path_965" data-name="Path 965" d="M206.025,116.385h.3l-.171.6a2.939,2.939,0,0,1,.555-.47,1.44,1.44,0,0,1,.726-.214,1.535,1.535,0,0,1,.47.085,2,2,0,0,1,.384.256.768.768,0,0,1,.256.384,2.142,2.142,0,0,1,.085.512,2.417,2.417,0,0,1-.128.769,1.448,1.448,0,0,1-.384.6,1.625,1.625,0,0,1-.555.384,1.714,1.714,0,0,1-.641.128,1.536,1.536,0,0,1-.47-.085,2.536,2.536,0,0,1-.342-.171l-.256-.256a1.07,1.07,0,0,1-.171-.3l-.47,1.708H205Zm1.452,2.69a1.163,1.163,0,0,0,.427-.342,2.709,2.709,0,0,0,.3-.512,1.357,1.357,0,0,0,.085-.6,1.263,1.263,0,0,0-.085-.427.929.929,0,0,0-.214-.342.766.766,0,0,0-.3-.214,1.248,1.248,0,0,0-.384-.085,1.316,1.316,0,0,0-.555.128,1.9,1.9,0,0,0-.47.342,1.536,1.536,0,0,0-.342.512,1.364,1.364,0,0,0-.128.6,1.517,1.517,0,0,0,.085.427.9.9,0,0,0,.555.555,1.264,1.264,0,0,0,.427.085A1.241,1.241,0,0,0,207.477,119.076Z" transform="translate(-141.405 -115.104)" fill="#27348b"/>
      <path id="Path_966" data-name="Path 966" d="M215.869,119.317a1.534,1.534,0,0,1-.427-.3.886.886,0,0,1-.256-.427,1.172,1.172,0,0,1-.085-.555,1.77,1.77,0,0,1,.128-.683,1.791,1.791,0,0,1,.384-.6,1.625,1.625,0,0,1,.555-.384,1.791,1.791,0,0,1,.683-.171,2.164,2.164,0,0,1,.555.085,1.534,1.534,0,0,1,.427.3.886.886,0,0,1,.256.427,1.172,1.172,0,0,1,.085.555,1.77,1.77,0,0,1-.128.683,1.791,1.791,0,0,1-.384.6,1.625,1.625,0,0,1-.555.384,1.771,1.771,0,0,1-.683.128A.627.627,0,0,1,215.869,119.317Zm1.11-.3a1.862,1.862,0,0,0,.811-.811,1.364,1.364,0,0,0,.128-.6,1.063,1.063,0,0,0-.3-.811,1.228,1.228,0,0,0-.769-.3,1.315,1.315,0,0,0-.555.128,1.862,1.862,0,0,0-.811.811,1.364,1.364,0,0,0-.128.6,1.063,1.063,0,0,0,.3.811,1.228,1.228,0,0,0,.769.3A1.316,1.316,0,0,0,216.979,119.018Z" transform="translate(-147.191 -115.047)" fill="#27348b"/>
      <path id="Path_967" data-name="Path 967" d="M224.269,116.443h.3l-.214.854a2.764,2.764,0,0,1,.342-.384,2.343,2.343,0,0,1,.384-.3,1.278,1.278,0,0,1,.427-.171,1.6,1.6,0,0,1,.47-.043l-.085.342h-.043a2.144,2.144,0,0,0-.513.085,1.6,1.6,0,0,0-.513.3,2.239,2.239,0,0,0-.427.47,1.446,1.446,0,0,0-.256.64l-.342,1.238h-.3Z" transform="translate(-152.003 -115.162)" fill="#27348b"/>
      <path id="Path_968" data-name="Path 968" d="M229.914,118.128a.551.551,0,0,1-.214-.47v-.171c0-.085,0-.085.043-.128l.513-1.921h-.427l.085-.256h.427l.256-.982h.3l-.256.982h1.025l-.085.256h-1.025l-.513,1.921v.256a.258.258,0,0,0,.128.256.8.8,0,0,0,.342.085,1.88,1.88,0,0,0,.427-.085l-.085.3a.464.464,0,0,1-.214.043h-.214A.735.735,0,0,1,229.914,118.128Z" transform="translate(-155.555 -113.901)" fill="#27348b"/>
      <path id="Path_969" data-name="Path 969" d="M241.391,117.229a2.139,2.139,0,0,1-.342.3,1.5,1.5,0,0,1-.342.214l-.384.128a1.453,1.453,0,0,1-.427.043,1.536,1.536,0,0,1-.47-.085,1.73,1.73,0,0,1-.384-.214,2.368,2.368,0,0,1-.256-.342,1.263,1.263,0,0,1-.085-.427,1.075,1.075,0,0,1,.384-.854,2.3,2.3,0,0,1,1.068-.555,1.731,1.731,0,0,1-.214-.384,1.246,1.246,0,0,1-.085-.384,1.263,1.263,0,0,1,.085-.427.664.664,0,0,1,.256-.342.93.93,0,0,1,.342-.213,1.263,1.263,0,0,1,.427-.085,1.324,1.324,0,0,1,.726.214.869.869,0,0,1,.256.64,1,1,0,0,1-.085.342,1.3,1.3,0,0,1-.214.3,1.868,1.868,0,0,1-.427.256,2.252,2.252,0,0,1-.641.213l.854,1.2a1.9,1.9,0,0,0,.342-.47,6.312,6.312,0,0,0,.342-.555l.214.128c-.128.213-.256.427-.384.6a4.535,4.535,0,0,1-.384.47l.513.769-.214.171Zm-.769.256a2.046,2.046,0,0,0,.641-.47l-.94-1.324a1.926,1.926,0,0,0-.982.47.91.91,0,0,0-.3.683.775.775,0,0,0,.256.6,1.049,1.049,0,0,0,.641.214A1.353,1.353,0,0,0,240.622,117.486Zm.384-2.263a3.1,3.1,0,0,0,.384-.214,1.133,1.133,0,0,0,.214-.256.541.541,0,0,0,.043-.256.5.5,0,0,0-.171-.427.681.681,0,0,0-.513-.171.727.727,0,0,0-.3.043.785.785,0,0,0-.427.427.727.727,0,0,0-.043.3.8.8,0,0,0,.085.342,1.732,1.732,0,0,0,.214.384A1.809,1.809,0,0,0,241.006,115.223Z" transform="translate(-160.711 -113.557)" fill="#27348b"/>
      <path id="Path_970" data-name="Path 970" d="M253.214,118.151v.085a1.263,1.263,0,0,0,.085.427,1.117,1.117,0,0,0,.513.512,1.263,1.263,0,0,0,.427.085,1.364,1.364,0,0,0,.6-.128,2.872,2.872,0,0,0,.47-.3l.171.213a3.562,3.562,0,0,1-.513.342,1.626,1.626,0,0,1-.683.128,1.593,1.593,0,0,1-.513-.085,1.138,1.138,0,0,1-.427-.256,1.008,1.008,0,0,1-.256-.384,1.083,1.083,0,0,1-.085-.512,1.77,1.77,0,0,1,.128-.683,1.792,1.792,0,0,1,.384-.6,1.762,1.762,0,0,1,.555-.427,1.254,1.254,0,0,1,.683-.171,2.144,2.144,0,0,1,.513.085.664.664,0,0,1,.342.256.826.826,0,0,1,.214.384,1.516,1.516,0,0,1,.085.427,1.592,1.592,0,0,1-.085.512h-2.477C253.214,118.108,253.214,118.108,253.214,118.151Zm2.221-.342V117.6a.833.833,0,0,0-.043-.342.688.688,0,0,0-.171-.3c-.085-.085-.171-.128-.256-.214s-.214-.085-.384-.085a1.536,1.536,0,0,0-.47.085.768.768,0,0,0-.384.256.93.93,0,0,0-.3.384,1.786,1.786,0,0,0-.171.427Z" transform="translate(-168.904 -115.162)" fill="#27348b"/>
      <path id="Path_971" data-name="Path 971" d="M261.523,117.952l-.811-1.452h.342l.683,1.281,1.324-1.281h.384l-1.58,1.495.854,1.537h-.342l-.683-1.366-1.409,1.366H259.9Z" transform="translate(-172.857 -115.219)" fill="#27348b"/>
      <path id="Path_972" data-name="Path 972" d="M268.61,116.385h.3l-.171.6a2.941,2.941,0,0,1,.555-.47,1.44,1.44,0,0,1,.726-.214,1.536,1.536,0,0,1,.47.085,2.006,2.006,0,0,1,.384.256.769.769,0,0,1,.256.384,2.142,2.142,0,0,1,.085.512,2.418,2.418,0,0,1-.128.769,1.448,1.448,0,0,1-.384.6,1.625,1.625,0,0,1-.555.384,1.714,1.714,0,0,1-.641.128,1.536,1.536,0,0,1-.47-.085,2.537,2.537,0,0,1-.342-.171l-.256-.256a1.069,1.069,0,0,1-.171-.3l-.47,1.708h-.3Zm1.452,2.69a1.163,1.163,0,0,0,.427-.342,1.477,1.477,0,0,0,.3-.512,1.356,1.356,0,0,0,.085-.6,1.262,1.262,0,0,0-.085-.427.93.93,0,0,0-.214-.342.766.766,0,0,0-.3-.214,1.247,1.247,0,0,0-.384-.085,1.316,1.316,0,0,0-.555.128,1.9,1.9,0,0,0-.47.342,1.536,1.536,0,0,0-.342.512,1.363,1.363,0,0,0-.128.6,1.516,1.516,0,0,0,.085.427.9.9,0,0,0,.555.555,1.264,1.264,0,0,0,.427.085A1.24,1.24,0,0,0,270.063,119.076Z" transform="translate(-177.211 -115.104)" fill="#27348b"/>
      <path id="Path_973" data-name="Path 973" d="M278.569,119.317a1.534,1.534,0,0,1-.427-.3.886.886,0,0,1-.256-.427,1.172,1.172,0,0,1-.085-.555,1.77,1.77,0,0,1,.128-.683,1.792,1.792,0,0,1,.384-.6,1.625,1.625,0,0,1,.555-.384,1.791,1.791,0,0,1,.683-.171,2.164,2.164,0,0,1,.555.085,1.534,1.534,0,0,1,.427.3.886.886,0,0,1,.256.427,1.172,1.172,0,0,1,.085.555,1.77,1.77,0,0,1-.128.683,1.791,1.791,0,0,1-.384.6,1.625,1.625,0,0,1-.555.384,1.771,1.771,0,0,1-.683.128A.613.613,0,0,1,278.569,119.317Zm1.11-.3a1.862,1.862,0,0,0,.811-.811,1.364,1.364,0,0,0,.128-.6,1.063,1.063,0,0,0-.3-.811,1.228,1.228,0,0,0-.769-.3,1.315,1.315,0,0,0-.555.128,1.862,1.862,0,0,0-.812.811,1.364,1.364,0,0,0-.128.6,1.063,1.063,0,0,0,.3.811,1.228,1.228,0,0,0,.769.3A1.316,1.316,0,0,0,279.679,119.018Z" transform="translate(-183.112 -115.047)" fill="#27348b"/>
      <path id="Path_974" data-name="Path 974" d="M286.969,116.443h.3l-.214.854a2.77,2.77,0,0,1,.342-.384,2.349,2.349,0,0,1,.384-.3,1.28,1.28,0,0,1,.427-.171,1.6,1.6,0,0,1,.47-.043l-.086.342h-.043a2.145,2.145,0,0,0-.513.085,1.6,1.6,0,0,0-.512.3,2.238,2.238,0,0,0-.427.47,1.446,1.446,0,0,0-.256.64l-.342,1.238h-.3Z" transform="translate(-187.924 -115.162)" fill="#27348b"/>
      <path id="Path_975" data-name="Path 975" d="M292.614,118.128a.551.551,0,0,1-.214-.47v-.171c0-.085,0-.085.043-.128l.513-1.921h-.427l.085-.256h.427l.256-.982h.3l-.256.982h1.025l-.085.256h-1.025l-.513,1.921v.256a.258.258,0,0,0,.128.256.8.8,0,0,0,.342.085,1.879,1.879,0,0,0,.427-.085l-.085.3a.465.465,0,0,1-.214.043h-.214A.735.735,0,0,1,292.614,118.128Z" transform="translate(-191.476 -113.901)" fill="#27348b"/>
    </g>
    <path id="Path_976" data-name="Path 976" d="M66.72,36.2l-3.18,2.843-.367.336-.734.672-1.8,1.62-1.1.978-.917-.764-.611-.489L57.7,38.462Z" transform="translate(-40.547 -25.501)" fill="#fff"/>
    <g id="Group_271" data-name="Group 271">
      <g id="Group_270" data-name="Group 270" transform="translate(2.538)">
        <path id="Path_977" data-name="Path 977" d="M45.55,1.2,15.862,9.239,9.9,4.257Z" transform="translate(-9.9 -1.2)" fill="url(#linear-gradient)"/>
        <path id="Path_978" data-name="Path 978" d="M36.928,39.584,31.7,42.274,34.024,37.2Z" transform="translate(-25.035 -26.196)" fill="url(#linear-gradient-2)"/>
        <path id="Path_979" data-name="Path 979" d="M65.961,1.2,56.667,9.484,53.945,11.9l-3.18,2.843-.367.336-.734.672-1.8,1.62-1.1.978-.917-.764-.611-.489L42.2,14.589l-1.773-1.437L39.3,12.2h0Z" transform="translate(-30.311 -1.2)" fill="url(#linear-gradient-3)"/>
      </g>
      <path id="Path_980" data-name="Path 980" d="M40.547,57.029c.122-.336.214-.672.336-1.009s.245-.672.4-1.009a9.444,9.444,0,0,1,.428-.978c.122-.245.245-.489.4-.734l1.651,1.345a2.549,2.549,0,0,0-.245.367c-.183.275-.336.55-.52.825s-.306.581-.459.856l-.428.886a17.453,17.453,0,0,0-1.223,3.76c-.153.642-.214,1.314-.306,1.987-.031.336-.031.672-.031,1.009v.489l.031.489a16.489,16.489,0,0,0,.734,4A15.871,15.871,0,0,1,40.027,65.4l-.092-.52c-.031-.183-.031-.336-.061-.52-.031-.336-.092-.7-.092-1.039,0-.7-.031-1.406.031-2.109A17.966,17.966,0,0,1,40.547,57.029Z" transform="translate(-28.102 -37.374)" fill="#e53c3c"/>
      <path id="Path_981" data-name="Path 981" d="M1.843,37.521a18.547,18.547,0,0,1,1.773-5.38A17.859,17.859,0,0,1,5.084,29.7c.275-.4.55-.764.856-1.162.214-.245.4-.489.642-.734l1.651,1.376c-.214.214-.459.459-.673.7-.275.306-.55.642-.826.978A19.848,19.848,0,0,0,5.329,33a16.869,16.869,0,0,0-1.8,4.8,17.183,17.183,0,0,0-.306,5.166,18.463,18.463,0,0,0,1.162,5.1A20.477,20.477,0,0,0,10.649,56.5a27.771,27.771,0,0,0,4.464,3,29.686,29.686,0,0,0,4.953,2.17,29.787,29.787,0,0,1-5.075-1.9,29.207,29.207,0,0,1-4.678-2.812,21.561,21.561,0,0,1-6.971-8.437,19.348,19.348,0,0,1-1.529-5.38A17.364,17.364,0,0,1,1.843,37.521Z" transform="translate(-1.598 -19.669)" fill="url(#linear-gradient-4)"/>
    </g>
  </g>
</svg>
